<svg width="420" height="704" viewBox="0 0 420 704" fill="none" xmlns="http://www.w3.org/2000/svg">
<path d="M22.359 0.16666C16.385 0.552074 10.812 3.30733 6.88562 7.82813C2.95855 12.3437 1.00536 18.2448 1.45856 24.2135C1.90648 30.1875 4.72937 35.7239 9.2971 39.5988L363.497 351.332L9.2971 663.065C4.25017 666.784 0.989771 672.446 0.312705 678.675C-0.369589 684.904 1.59394 691.138 5.71895 695.852C9.84922 700.571 15.7659 703.342 22.031 703.498C28.2966 703.649 34.3383 701.175 38.6923 696.665L412.026 368.131C416.849 363.876 419.609 357.756 419.609 351.329C419.609 344.901 416.849 338.782 412.026 334.526L38.6923 5.99266C34.2548 1.93533 28.3694 -0.168807 22.359 0.159326V0.16666Z" fill="white"/>
</svg>
